<svg width="19.000000" height="17.000000" viewBox="0 0 19 17" fill="none" xmlns="http://www.w3.org/2000/svg" xmlns:xlink="http://www.w3.org/1999/xlink">
	<desc>
			Created with Pixso.
	</desc>
	<defs>
		<clipPath id="clip9_26">
			<rect id="Handbag" width="19.000000" height="17.000000" fill="white" fill-opacity="0"/>
		</clipPath>
	</defs>
	<g clip-path="url(#clip9_26)">
		<path id="path" d="M7.91 1.5L11.47 1.5C12.79 1.5 13.85 2.67 13.85 4.12L13.85 5L5.54 5L5.54 4.12C5.54 2.67 6.6 1.5 7.91 1.5Z" stroke="#FFFFFF" stroke-opacity="1.000000" stroke-width="1.500000" stroke-linejoin="round"/>
		<path id="path" d="M9.3 11.07C9.43 11.1 9.56 11.1 9.69 11.07L17.41 8.93L17.41 14.62C17.41 15.1 17.06 15.5 16.62 15.5L2.37 15.5C1.93 15.5 1.58 15.1 1.58 14.62L1.58 8.93L9.3 11.07Z" stroke="#FFFFFF" stroke-opacity="1.000000" stroke-width="1.500000" stroke-linejoin="round"/>
		<path id="path" d="M17.41 9.81L17.41 5.87C17.41 5.39 17.06 5 16.62 5L2.37 5C1.93 5 1.58 5.39 1.58 5.87L1.58 " stroke="#FFFFFF" stroke-opacity="1.000000" stroke-width="1.500000" stroke-linejoin="round" stroke-linecap="round"/>
		<path id="path" d="M10.48 8.06C10.48 8.66 10.04 9.15 9.5 9.15C8.95 9.15 8.51 8.66 8.51 8.06C8.51 7.45 8.95 6.96 9.5 6.96C10.04 6.96 10.48 7.45 10.48 8.06Z" fill="#FFFFFF" fill-opacity="1.000000" fill-rule="nonzero"/>
	</g>
</svg>
